<svg width="913" height="599" viewBox="0 0 913 599" fill="none" xmlns="http://www.w3.org/2000/svg">
<rect width="913" height="599" fill="white"/>
<path d="M25 245.716H48.8384V185.013L97.5617 219.213L101.754 214.255L25 136.36V245.716Z" fill="url(#paint0_linear)"/>
<path d="M90.0518 195.225L105.502 210.798L146.676 185.365V215.557V245.75H180.942V140.75L90.0518 195.225Z" fill="url(#paint1_linear)"/>
<path d="M257.055 236.15C253.372 239.59 250.13 242.31 247.329 244.31C244.527 246.31 242.006 247.31 239.764 247.31C238.002 247.31 236.401 246.63 234.96 245.27C233.6 243.83 232.319 241.55 231.118 238.43C228.636 240.59 225.594 242.43 221.992 243.95C218.389 245.39 214.507 246.35 210.344 246.83C209.063 246.99 207.822 247.11 206.621 247.19C205.421 247.27 204.26 247.31 203.139 247.31C191.852 247.31 186.208 243.27 186.208 235.19C186.208 234.23 186.288 233.23 186.448 232.19C186.608 231.15 186.848 230.03 187.168 228.83C187.889 226.19 189.33 223.83 191.491 221.75C193.733 219.59 196.415 217.67 199.537 215.99C202.659 214.23 205.861 212.63 209.143 211.19C212.425 209.67 215.468 208.27 218.269 206.99C221.151 205.63 223.472 204.31 225.234 203.03C227.074 201.75 227.996 200.47 227.996 199.19C227.996 195.67 227.555 193.31 226.675 192.11C225.795 190.83 224.114 190.19 221.631 190.19C219.87 190.19 217.149 190.35 213.466 190.67C209.783 190.99 205.741 191.47 201.338 192.11C196.935 192.75 192.732 193.59 188.729 194.63L188.129 193.43C190.29 191.35 193.052 189.35 196.415 187.43C199.857 185.51 203.499 183.79 207.342 182.27C211.265 180.75 215.147 179.55 218.99 178.67C222.832 177.79 226.315 177.35 229.437 177.35C234.399 177.35 238.082 177.87 240.484 178.91C242.966 179.87 244.606 181.83 245.407 184.79C246.287 187.67 246.728 192.03 246.728 197.87V228.23C246.728 231.11 246.968 233.19 247.449 234.47C248.01 235.67 249.25 236.27 251.171 236.27C251.811 236.27 252.573 236.19 253.453 236.03C254.413 235.87 255.455 235.67 256.575 235.43L257.055 236.15ZM228.956 209.63C227.195 211.15 224.834 212.79 221.872 214.55C218.99 216.23 216.188 218.07 213.466 220.07C210.744 221.99 208.743 224.15 207.462 226.55C206.341 228.79 205.781 230.75 205.781 232.43C205.781 234.03 206.261 235.35 207.222 236.39C208.263 237.43 209.704 237.95 211.545 237.95C211.945 237.95 212.345 237.95 212.746 237.95C213.226 237.87 213.667 237.79 214.066 237.71C215.667 237.31 217.509 236.75 219.59 236.03C221.752 235.31 223.753 234.47 225.594 233.51C227.515 232.55 228.876 231.59 229.677 230.63L228.956 209.63Z" fill="url(#paint2_linear)"/>
<path d="M268.496 271.19L264.414 178.91H285.428L285.068 187.67C288.27 184.95 292.072 182.55 296.475 180.47C300.879 178.39 305.16 177.35 309.324 177.35C316.928 177.35 322.572 179.71 326.255 184.43C330.017 189.07 331.899 195.67 331.899 204.23C331.899 212.63 329.897 219.83 325.895 225.83C321.893 231.75 316.208 236.43 308.843 239.87C301.479 243.31 292.792 245.55 282.786 246.59L281.825 271.19H268.496ZM283.026 241.31C290.952 238.59 297.156 235.35 301.639 231.59C306.121 227.83 309.284 223.71 311.125 219.23C312.966 214.75 313.887 210.07 313.887 205.19C313.887 199.75 312.966 195.83 311.125 193.43C309.284 191.03 306.601 189.83 303.08 189.83C299.877 189.83 296.835 190.07 293.953 190.55C291.152 191.03 288.109 191.91 284.827 193.19L283.026 241.31ZM348.825 271.19L344.742 178.91H365.756L365.396 187.67C368.597 184.95 372.4 182.55 376.803 180.47C381.205 178.39 385.488 177.35 389.652 177.35C397.256 177.35 402.9 179.71 406.583 184.43C410.345 189.07 412.227 195.67 412.227 204.23C412.227 212.63 410.225 219.83 406.223 225.83C402.219 231.75 396.536 236.43 389.172 239.87C381.805 243.31 373.12 245.55 363.114 246.59L362.153 271.19H348.825ZM363.354 241.31C371.28 238.59 377.482 235.35 381.967 231.59C386.449 227.83 389.611 223.71 391.453 219.23C393.294 214.75 394.215 210.07 394.215 205.19C394.215 199.75 393.294 195.83 391.453 193.43C389.611 191.03 386.929 189.83 383.408 189.83C380.205 189.83 377.163 190.07 374.282 190.55C371.478 191.03 368.437 191.91 365.155 193.19L363.354 241.31Z" fill="url(#paint3_linear)"/>
<path d="M485.348 247.31C473.019 247.31 462.734 246.75 454.488 245.63C446.242 244.51 439.718 242.67 434.915 240.11C430.111 237.55 426.668 234.19 424.588 230.03C422.507 225.87 421.466 220.79 421.466 214.79C421.466 207.03 422.907 200.35 425.789 194.75C428.67 189.15 432.432 184.87 437.076 181.91C441.799 178.87 446.763 177.35 451.966 177.35C456.129 177.35 460.332 177.99 464.574 179.27C468.817 180.55 472.779 182.63 476.462 185.51C480.145 188.39 483.148 192.19 485.468 196.91C487.789 201.55 489.11 207.27 489.431 214.07L438.397 219.83C439.117 224.23 441.119 227.99 444.401 231.11C447.763 234.15 452.807 236.83 459.531 239.15C466.256 241.47 475.021 243.71 485.829 245.87L485.348 247.31ZM469.378 204.23C468.978 201.11 468.057 198.15 466.616 195.35C465.175 192.55 463.334 190.31 461.092 188.63C458.85 186.87 456.37 185.99 453.647 185.99C450.444 185.99 447.683 186.75 445.362 188.27C443.041 189.79 441.239 192.71 439.958 197.03C438.676 201.27 438.037 207.51 438.037 215.75C438.037 216.15 438.037 216.55 438.037 216.95C438.037 217.27 438.076 217.63 438.157 218.03L469.378 204.23ZM504.207 245.75L499.884 178.91H521.018L520.658 190.79C522.498 188.39 524.74 186.19 527.382 184.19C530.024 182.11 532.866 180.47 535.908 179.27C539.03 177.99 542.152 177.35 545.274 177.35V194.99C543.674 194.11 541.872 193.47 539.87 193.07C537.949 192.59 535.947 192.35 533.866 192.35C531.384 192.35 528.943 192.67 526.542 193.31C524.14 193.87 522.138 194.71 520.537 195.83L518.976 245.75H504.207Z" fill="url(#paint4_linear)"/>
<g clip-path="url(#clip0)">
<path d="M266.36 175.128H283.654L275.091 157.725C274.432 156.384 274.984 154.763 276.324 154.103C277.666 153.441 279.286 153.996 279.946 155.337L289.685 175.128H304.231C305.725 175.128 306.937 176.34 306.937 177.834C306.937 179.327 305.725 180.539 304.231 180.539H266.36C264.866 180.539 263.655 179.327 263.655 177.834C263.655 176.34 264.866 175.128 266.36 175.128Z" fill="#EBAF4B"/>
<path d="M266.36 175.128H272.834L264.27 157.725C263.611 156.384 264.163 154.763 265.504 154.103C266.85 153.441 268.465 153.996 269.125 155.337L278.864 175.128H293.411C294.904 175.128 296.116 176.34 296.116 177.834C296.116 179.327 294.904 180.539 293.411 180.539H266.359C264.866 180.539 263.654 179.327 263.654 177.834C263.655 176.34 264.866 175.128 266.36 175.128Z" fill="#FFC850"/>
<path d="M359.913 79.5971L346.914 83L345 76L359.247 77.9819C361.254 78.2611 361.621 79.1502 359.913 79.5971Z" fill="#FFC850"/>
<path d="M358.913 86.5971L345.914 90L344 83L358.247 84.9819C360.254 85.2611 360.621 86.1502 358.913 86.5971Z" fill="#EBAF4B"/>
<path d="M225.022 111.389C247.198 109.304 263.204 81.8017 272.784 65.233C279.19 54.1551 287.775 47.3116 300.485 44.8316L292.509 34.4623C292.509 34.4623 342.103 33.5604 349.865 85.8595C355.064 131.847 317.747 161.603 274.475 161.603C239.367 161.603 208.923 140.691 198.193 111.789C197.282 109.336 199.759 107.002 202.175 108.004C207.25 110.108 215.201 112.313 225.022 111.389Z" fill="#00C3FF"/>
<path d="M253.51 157.545C296.783 157.545 334.099 127.789 328.9 81.8017C324.549 52.4872 307.058 39.8913 292.522 34.4785L292.509 34.4623C292.509 34.4623 342.103 33.5604 349.865 85.8595C355.064 131.847 317.747 161.603 274.475 161.603C265.017 161.603 255.898 160.084 247.412 157.301C249.429 157.442 251.458 157.545 253.51 157.545Z" fill="#00AAF0"/>
<path d="M265.663 75.5339C270.15 69.6843 278.172 67.8748 284.649 71.3952L284.739 71.4445C321.345 91.3757 282.014 160.07 221.744 107.146C219.507 105.182 220.892 101.48 223.868 101.48C233.483 101.478 249.02 97.2294 265.663 75.5339Z" fill="#00AAF0"/>
<path d="M230.007 100.91C248.957 118.711 295.771 128.973 298.657 91.277C301.771 116.886 267.878 147.701 221.695 107.102C219.453 105.132 220.908 101.474 223.892 101.471C225.727 101.469 227.776 101.312 230.007 100.91Z" fill="#0096DC"/>
<path d="M281.821 69.1094C277.787 68.9691 273.091 69.4706 269.999 65.7396C267.276 62.7568 265.061 59.0437 263.632 54.9967C263.384 52.057 263.382 48.4659 260.697 47.0692C257.598 45.1026 253.937 45.3856 250.549 44.8413C244.155 44.416 238.063 47.0818 232.103 49.4401C229.274 50.5506 225.796 50.3467 223.721 47.5127C222.105 45.659 221.123 43.2585 220.103 40.9605C218.609 39.4729 218.519 37.1619 220.536 36.5452C221.778 35.7034 223.019 34.8616 224.261 34.0198C226.168 38.1482 227.62 43.453 231.642 45.2925C235.772 46.338 239.602 43.5312 243.495 42.3942C249.014 40.2944 254.912 39.9783 260.612 41.0917C263.894 41.4367 267.866 42.8599 268.858 47.0909C269.149 50.7598 269.81 54.3335 272.004 57.0887C274.08 60.817 277.124 64.3708 281.12 64.5241C282.443 65.043 286.771 63.983 286.295 65.2549C284.804 66.5397 283.312 67.8245 281.821 69.1094V69.1094Z" fill="#B60202"/>
<path d="M278.509 56.0508C286.879 56.7987 301.659 59.4488 313.322 60.1715C322.894 60.7646 333.111 60.3369 341 60.1715C346.714 69.9647 350 80 350 89.5C333.178 92.3171 317.31 90.4539 303.585 86.0677C291.099 82.0773 280.476 77.5195 271.5 67.5C275.503 61.8054 275.103 59.1208 278.509 56.0508Z" fill="#D40000"/>
<path d="M277.656 62.5426C274.73 60.6348 271.151 58.9518 269.907 55.44C269.083 53.0885 268.236 50.7109 267.824 48.2507C267.462 44.9073 267.834 41.5381 267.667 38.1872C268.206 36.0489 266.819 34.0816 264.678 33.6869C261.871 32.8686 258.902 32.9762 256.024 32.5799C253.378 32.4357 250.221 33.0113 248.122 31.0215C246.531 29.1235 245.84 26.6671 245.051 24.3675C244.87 23.1664 246.465 23.1184 247.158 22.4082C248.424 21.6054 249.689 20.8027 250.954 20C251.228 22.2374 252.21 24.3258 253.087 26.3769C254.297 28.5319 256.948 28.6347 259.135 28.5805C262.565 28.7987 266.048 28.8664 269.406 29.6282C271.523 30.1228 274.018 31.6216 273.796 34.0861C273.938 39.1922 273.093 44.4872 274.848 49.4109C275.574 51.6134 276.286 53.9909 278.234 55.4531C279.694 56.8073 281.531 57.6969 283.159 58.7776C281.825 59.9441 280.123 60.8229 278.649 61.8849C278.318 62.1041 277.987 62.3233 277.656 62.5426V62.5426Z" fill="#D40000"/>
<path d="M325.872 85.8595C330.354 85.8595 333.988 82.2261 333.988 77.7442V75.0391C333.988 70.5573 330.354 66.9238 325.872 66.9238C321.39 66.9238 317.757 70.5573 317.757 75.0391V77.7442C317.757 82.2261 321.39 85.8595 325.872 85.8595Z" fill="#4B3F4E"/>
<path d="M325.872 66.9238V76.3918C325.872 78.6328 324.056 80.4496 321.814 80.4496C319.573 80.4496 317.757 78.6331 317.757 76.3918V75.0391C317.757 70.5569 321.39 66.9238 325.872 66.9238Z" fill="#5D5360"/>
<path d="M325.872 75.0391C324.378 75.0391 323.167 73.828 323.167 72.334C323.167 70.84 324.378 69.6289 325.872 69.6289C327.366 69.6289 328.577 70.84 328.577 72.334C328.577 73.828 327.366 75.0391 325.872 75.0391Z" fill="white"/>
</g>
<defs>
<linearGradient id="paint0_linear" x1="69.5372" y1="231.195" x2="70.0244" y2="96.7744" gradientUnits="userSpaceOnUse">
<stop stop-color="#E23E57"/>
<stop offset="1" stop-color="#88304E"/>
</linearGradient>
<linearGradient id="paint1_linear" x1="137.257" y1="231.467" x2="137.744" y2="97.047" gradientUnits="userSpaceOnUse">
<stop stop-color="#E23E57"/>
<stop offset="1" stop-color="#88304E"/>
</linearGradient>
<linearGradient id="paint2_linear" x1="384.303" y1="107" x2="384.303" y2="245.75" gradientUnits="userSpaceOnUse">
<stop stop-color="#E23E57"/>
<stop offset="1" stop-color="#88304E"/>
</linearGradient>
<linearGradient id="paint3_linear" x1="384.303" y1="107" x2="384.303" y2="245.75" gradientUnits="userSpaceOnUse">
<stop stop-color="#88304E"/>
<stop offset="1" stop-color="#522546"/>
</linearGradient>
<linearGradient id="paint4_linear" x1="384.303" y1="107" x2="384.303" y2="245.75" gradientUnits="userSpaceOnUse">
<stop stop-color="#522546"/>
<stop offset="1" stop-color="#311D3F"/>
</linearGradient>
<clipPath id="clip0">
<rect width="163" height="163" fill="white" transform="matrix(-1 0 0 1 361 26)"/>
</clipPath>
</defs>
</svg>
