<!--
  - Copyright 2020-2022 the original author or authors.
  -
  - Licensed under the Apache License, Version 2.0 (the "License");
  - you may not use this file except in compliance with the License.
  - You may obtain a copy of the License at
  -
  -    http://www.apache.org/licenses/LICENSE-2.0
  -
  - Unless required by applicable law or agreed to in writing, software
  - distributed under the License is distributed on an "AS IS" BASIS,
  - WITHOUT WARRANTIES OR CONDITIONS OF ANY KIND, either express or implied.
  - See the License for the specific language governing permissions and
  - limitations under the License.
  -->

<svg width="561" height="246" viewBox="0 0 561 246" fill="none" xmlns="http://www.w3.org/2000/svg">
  <path d="M0 219.716H23.8384V159.013L72.5617 193.213L76.7544 188.255L0 110.36V219.716Z" fill="url(#paint0_linear)"/>
  <path d="M65.0518 169.225L80.502 184.798L121.676 159.365V189.557V219.75H155.942V114.75L65.0518 169.225Z"
        fill="url(#paint1_linear)"/>
  <path
      d="M232.055 210.15C228.372 213.59 225.13 216.31 222.329 218.31C219.527 220.31 217.006 221.31 214.764 221.31C213.002 221.31 211.401 220.63 209.96 219.27C208.6 217.83 207.319 215.55 206.118 212.43C203.636 214.59 200.594 216.43 196.992 217.95C193.389 219.39 189.507 220.35 185.344 220.83C184.063 220.99 182.822 221.11 181.621 221.19C180.421 221.27 179.26 221.31 178.139 221.31C166.852 221.31 161.208 217.27 161.208 209.19C161.208 208.23 161.288 207.23 161.448 206.19C161.608 205.15 161.848 204.03 162.168 202.83C162.889 200.19 164.33 197.83 166.491 195.75C168.733 193.59 171.415 191.67 174.537 189.99C177.659 188.23 180.861 186.63 184.143 185.19C187.425 183.67 190.468 182.27 193.269 180.99C196.151 179.63 198.472 178.31 200.234 177.03C202.074 175.75 202.996 174.47 202.996 173.19C202.996 169.67 202.555 167.31 201.675 166.11C200.795 164.83 199.114 164.19 196.631 164.19C194.87 164.19 192.149 164.35 188.466 164.67C184.783 164.99 180.741 165.47 176.338 166.11C171.935 166.75 167.732 167.59 163.729 168.63L163.129 167.43C165.29 165.35 168.052 163.35 171.415 161.43C174.857 159.51 178.499 157.79 182.342 156.27C186.265 154.75 190.147 153.55 193.99 152.67C197.832 151.79 201.315 151.35 204.437 151.35C209.399 151.35 213.082 151.87 215.484 152.91C217.966 153.87 219.606 155.83 220.407 158.79C221.287 161.67 221.728 166.03 221.728 171.87V202.23C221.728 205.11 221.968 207.19 222.449 208.47C223.01 209.67 224.25 210.27 226.171 210.27C226.811 210.27 227.573 210.19 228.453 210.03C229.413 209.87 230.455 209.67 231.575 209.43L232.055 210.15ZM203.956 183.63C202.195 185.15 199.834 186.79 196.872 188.55C193.99 190.23 191.188 192.07 188.466 194.07C185.744 195.99 183.743 198.15 182.462 200.55C181.341 202.79 180.781 204.75 180.781 206.43C180.781 208.03 181.261 209.35 182.222 210.39C183.263 211.43 184.704 211.95 186.545 211.95C186.945 211.95 187.345 211.95 187.746 211.95C188.226 211.87 188.667 211.79 189.066 211.71C190.667 211.31 192.509 210.75 194.59 210.03C196.752 209.31 198.753 208.47 200.594 207.51C202.515 206.55 203.876 205.59 204.677 204.63L203.956 183.63Z"
      fill="url(#paint2_linear)"/>
  <path
      d="M243.496 245.19L239.414 152.91H260.428L260.068 161.67C263.27 158.95 267.072 156.55 271.475 154.47C275.879 152.39 280.16 151.35 284.324 151.35C291.928 151.35 297.572 153.71 301.255 158.43C305.017 163.07 306.899 169.67 306.899 178.23C306.899 186.63 304.897 193.83 300.895 199.83C296.893 205.75 291.208 210.43 283.843 213.87C276.479 217.31 267.792 219.55 257.786 220.59L256.825 245.19H243.496ZM258.026 215.31C265.952 212.59 272.156 209.35 276.639 205.59C281.121 201.83 284.284 197.71 286.125 193.23C287.966 188.75 288.887 184.07 288.887 179.19C288.887 173.75 287.966 169.83 286.125 167.43C284.284 165.03 281.601 163.83 278.08 163.83C274.877 163.83 271.835 164.07 268.953 164.55C266.152 165.03 263.109 165.91 259.827 167.19L258.026 215.31ZM323.825 245.19L319.742 152.91H340.756L340.396 161.67C343.597 158.95 347.4 156.55 351.803 154.47C356.205 152.39 360.488 151.35 364.652 151.35C372.256 151.35 377.9 153.71 381.583 158.43C385.345 163.07 387.227 169.67 387.227 178.23C387.227 186.63 385.225 193.83 381.223 199.83C377.219 205.75 371.536 210.43 364.172 213.87C356.805 217.31 348.12 219.55 338.114 220.59L337.153 245.19H323.825ZM338.354 215.31C346.28 212.59 352.482 209.35 356.967 205.59C361.449 201.83 364.611 197.71 366.453 193.23C368.294 188.75 369.215 184.07 369.215 179.19C369.215 173.75 368.294 169.83 366.453 167.43C364.611 165.03 361.929 163.83 358.408 163.83C355.205 163.83 352.163 164.07 349.282 164.55C346.478 165.03 343.437 165.91 340.155 167.19L338.354 215.31Z"
      fill="url(#paint3_linear)"/>
  <path
      d="M460.348 221.31C448.019 221.31 437.734 220.75 429.488 219.63C421.242 218.51 414.718 216.67 409.915 214.11C405.111 211.55 401.668 208.19 399.588 204.03C397.507 199.87 396.466 194.79 396.466 188.79C396.466 181.03 397.907 174.35 400.789 168.75C403.67 163.15 407.432 158.87 412.076 155.91C416.799 152.87 421.763 151.35 426.966 151.35C431.129 151.35 435.332 151.99 439.574 153.27C443.817 154.55 447.779 156.63 451.462 159.51C455.145 162.39 458.148 166.19 460.468 170.91C462.789 175.55 464.11 181.27 464.431 188.07L413.397 193.83C414.117 198.23 416.119 201.99 419.401 205.11C422.763 208.15 427.807 210.83 434.531 213.15C441.256 215.47 450.021 217.71 460.829 219.87L460.348 221.31ZM444.378 178.23C443.978 175.11 443.057 172.15 441.616 169.35C440.175 166.55 438.334 164.31 436.092 162.63C433.85 160.87 431.37 159.99 428.647 159.99C425.444 159.99 422.683 160.75 420.362 162.27C418.041 163.79 416.239 166.71 414.958 171.03C413.676 175.27 413.037 181.51 413.037 189.75C413.037 190.15 413.037 190.55 413.037 190.95C413.037 191.27 413.076 191.63 413.157 192.03L444.378 178.23ZM479.207 219.75L474.884 152.91H496.018L495.658 164.79C497.498 162.39 499.74 160.19 502.382 158.19C505.024 156.11 507.866 154.47 510.908 153.27C514.03 151.99 517.152 151.35 520.274 151.35V168.99C518.674 168.11 516.872 167.47 514.87 167.07C512.949 166.59 510.947 166.35 508.866 166.35C506.384 166.35 503.943 166.67 501.542 167.31C499.14 167.87 497.138 168.71 495.537 169.83L493.976 219.75H479.207Z"
      fill="url(#paint4_linear)"/>
  <g clip-path="url(#clip0)">
    <path
        d="M241.36 149.128H258.654L250.091 131.725C249.432 130.384 249.984 128.763 251.324 128.103C252.666 127.441 254.286 127.996 254.946 129.337L264.685 149.128H279.231C280.725 149.128 281.937 150.34 281.937 151.834C281.937 153.327 280.725 154.539 279.231 154.539H241.36C239.866 154.539 238.655 153.327 238.655 151.834C238.655 150.34 239.866 149.128 241.36 149.128Z"
        fill="#EBAF4B"/>
    <path
        d="M241.36 149.128H247.834L239.27 131.725C238.611 130.384 239.163 128.763 240.504 128.103C241.85 127.441 243.465 127.996 244.125 129.337L253.864 149.128H268.411C269.904 149.128 271.116 150.34 271.116 151.834C271.116 153.327 269.904 154.539 268.411 154.539H241.359C239.866 154.539 238.654 153.327 238.654 151.834C238.655 150.34 239.866 149.128 241.36 149.128Z"
        fill="#FFC850"/>
<path d="M334.913 53.5971L321.914 57L320 50L334.247 51.9819C336.254 52.2611 336.621 53.1502 334.913 53.5971Z" fill="#FFC850"/>
<path d="M333.913 60.5971L320.914 64L319 57L333.247 58.9819C335.254 59.2611 335.621 60.1502 333.913 60.5971Z" fill="#EBAF4B"/>
<path d="M200.022 85.3891C222.198 83.3038 238.204 55.8017 247.784 39.233C254.19 28.1551 262.775 21.3116 275.485 18.8316L267.509 8.46231C267.509 8.46231 317.103 7.56039 324.865 59.8595C330.064 105.847 292.747 135.603 249.475 135.603C214.367 135.603 183.923 114.691 173.193 85.7886C172.282 83.336 174.759 81.0018 177.175 82.004C182.25 84.108 190.201 86.3126 200.022 85.3891Z" fill="#00C3FF"/>
<path d="M228.51 131.545C271.783 131.545 309.099 101.789 303.9 55.8017C299.549 26.4872 282.058 13.8913 267.522 8.47854L267.509 8.46231C267.509 8.46231 317.103 7.56039 324.865 59.8595C330.064 105.847 292.747 135.603 249.475 135.603C240.017 135.603 230.898 134.084 222.412 131.301C224.429 131.442 226.458 131.545 228.51 131.545Z" fill="#00AAF0"/>
<path d="M240.663 49.5339C245.15 43.6843 253.172 41.8748 259.649 45.3952L259.739 45.4445C296.345 65.3757 257.014 134.07 196.744 81.146C194.507 79.182 195.892 75.4805 198.868 75.4798C208.483 75.4782 224.02 71.2294 240.663 49.5339Z" fill="#00AAF0"/>
<path d="M205.007 74.9103C223.957 92.711 270.771 102.973 273.657 65.277C276.771 90.8859 242.878 121.701 196.695 81.1024C194.453 79.132 195.908 75.4741 198.892 75.4706C200.727 75.4687 202.776 75.312 205.007 74.9103Z" fill="#0096DC"/>
<path d="M256.821 43.1094C252.787 42.9691 248.091 43.4706 244.999 39.7396C242.276 36.7568 240.061 33.0437 238.632 28.9967C238.384 26.057 238.382 22.4659 235.697 21.0692C232.598 19.1026 228.937 19.3856 225.549 18.8413C219.155 18.416 213.063 21.0818 207.103 23.4401C204.274 24.5506 200.796 24.3467 198.721 21.5127C197.105 19.659 196.123 17.2585 195.103 14.9605C193.609 13.4729 193.519 11.1619 195.536 10.5452C196.778 9.7034 198.019 8.86159 199.261 8.01978C201.168 12.1482 202.62 17.453 206.642 19.2925C210.772 20.338 214.602 17.5312 218.495 16.3942C224.014 14.2944 229.912 13.9783 235.612 15.0917C238.894 15.4367 242.866 16.8599 243.858 21.0909C244.149 24.7598 244.81 28.3335 247.004 31.0887C249.08 34.817 252.124 38.3708 256.12 38.5241C257.443 39.043 261.771 37.983 261.295 39.2549C259.804 40.5397 258.312 41.8245 256.821 43.1094V43.1094Z" fill="#B60202"/>
<path d="M253.509 30.0508C261.879 30.7987 276.659 33.4488 288.322 34.1715C297.894 34.7646 308.111 34.3369 316 34.1715C321.714 43.9647 325 54 325 63.5C308.178 66.3171 292.31 64.4539 278.585 60.0677C266.099 56.0773 255.476 51.5195 246.5 41.5C250.503 35.8054 250.103 33.1208 253.509 30.0508Z" fill="#D40000"/>
<path d="M252.656 36.5426C249.73 34.6348 246.151 32.9518 244.907 29.44C244.083 27.0885 243.236 24.7109 242.824 22.2507C242.462 18.9073 242.834 15.5381 242.667 12.1872C243.206 10.0489 241.819 8.08163 239.678 7.68686C236.871 6.86861 233.902 6.97621 231.024 6.57987C228.378 6.43569 225.221 7.01126 223.122 5.02146C221.531 3.12348 220.84 0.667057 220.051 -1.63248C219.87 -2.83358 221.465 -2.88162 222.158 -3.59183C223.424 -4.39456 224.689 -5.19728 225.954 -6C226.228 -3.76257 227.21 -1.6742 228.087 0.376886C229.297 2.53186 231.948 2.63469 234.135 2.58054C237.565 2.79875 241.048 2.86635 244.406 3.62824C246.523 4.12283 249.018 5.62157 248.796 8.08609C248.938 13.1922 248.093 18.4872 249.848 23.4109C250.574 25.6134 251.286 27.9909 253.234 29.4531C254.694 30.8073 256.531 31.6969 258.159 32.7776C256.825 33.9441 255.123 34.8229 253.649 35.8849C253.318 36.1041 252.987 36.3233 252.656 36.5426V36.5426Z" fill="#D40000"/>
<path d="M300.872 59.8595C305.354 59.8595 308.988 56.2261 308.988 51.7442V49.0391C308.988 44.5573 305.354 40.9238 300.872 40.9238C296.39 40.9238 292.757 44.5573 292.757 49.0391V51.7442C292.757 56.2261 296.39 59.8595 300.872 59.8595Z" fill="#4B3F4E"/>
<path d="M300.872 40.9238V50.3918C300.872 52.6328 299.056 54.4496 296.814 54.4496C294.573 54.4496 292.757 52.6331 292.757 50.3918V49.0391C292.757 44.5569 296.39 40.9238 300.872 40.9238Z" fill="#5D5360"/>
<path d="M300.872 49.0391C299.378 49.0391 298.167 47.828 298.167 46.334C298.167 44.84 299.378 43.6289 300.872 43.6289C302.366 43.6289 303.577 44.84 303.577 46.334C303.577 47.828 302.366 49.0391 300.872 49.0391Z" fill="white"/>
</g>
<defs>
<linearGradient id="paint0_linear" x1="44.5372" y1="205.195" x2="45.0244" y2="70.7744" gradientUnits="userSpaceOnUse">
<stop stop-color="#E23E57"/>
<stop offset="1" stop-color="#88304E"/>
</linearGradient>
<linearGradient id="paint1_linear" x1="112.257" y1="205.467" x2="112.744" y2="71.047" gradientUnits="userSpaceOnUse">
<stop stop-color="#E23E57"/>
<stop offset="1" stop-color="#88304E"/>
</linearGradient>
<linearGradient id="paint2_linear" x1="359.303" y1="81" x2="359.303" y2="219.75" gradientUnits="userSpaceOnUse">
<stop stop-color="#E23E57"/>
<stop offset="1" stop-color="#88304E"/>
</linearGradient>
<linearGradient id="paint3_linear" x1="359.303" y1="81" x2="359.303" y2="219.75" gradientUnits="userSpaceOnUse">
<stop stop-color="#88304E"/>
<stop offset="1" stop-color="#522546"/>
</linearGradient>
<linearGradient id="paint4_linear" x1="359.303" y1="81" x2="359.303" y2="219.75" gradientUnits="userSpaceOnUse">
<stop stop-color="#522546"/>
<stop offset="1" stop-color="#311D3F"/>
</linearGradient>
<clipPath id="clip0">
<rect width="163" height="163" fill="white" transform="matrix(-1 0 0 1 336 0)"/>
</clipPath>
</defs>
</svg>
