<!--
  - Copyright 2020-2022 the original author or authors.
  -
  - Licensed under the Apache License, Version 2.0 (the "License");
  - you may not use this file except in compliance with the License.
  - You may obtain a copy of the License at
  -
  -    http://www.apache.org/licenses/LICENSE-2.0
  -
  - Unless required by applicable law or agreed to in writing, software
  - distributed under the License is distributed on an "AS IS" BASIS,
  - WITHOUT WARRANTIES OR CONDITIONS OF ANY KIND, either express or implied.
  - See the License for the specific language governing permissions and
  - limitations under the License.
  -->

<svg width="163" height="163" viewBox="0 0 163 163" fill="none" xmlns="http://www.w3.org/2000/svg">
  <g clip-path="url(#clip0)">
    <path
        d="M68.3597 149.128H85.6543L77.0907 131.725C76.4317 130.384 76.9837 128.763 78.3244 128.103C79.6662 127.441 81.2857 127.996 81.946 129.337L91.685 149.128H106.231C107.725 149.128 108.937 150.34 108.937 151.834C108.937 153.327 107.725 154.539 106.231 154.539H68.3597C66.866 154.539 65.6546 153.327 65.6546 151.834C65.6546 150.34 66.8657 149.128 68.3597 149.128Z"
        fill="#EBAF4B"/>
    <path
        d="M68.3597 149.128H74.8336L66.27 131.725C65.611 130.384 66.163 128.763 67.5037 128.103C68.8497 127.441 70.465 127.996 71.1253 129.337L80.8642 149.128H95.4107C96.9045 149.128 98.1158 150.34 98.1158 151.834C98.1158 153.327 96.9045 154.539 95.4107 154.539H68.3594C66.8657 154.539 65.6543 153.327 65.6543 151.834C65.6546 150.34 66.8657 149.128 68.3597 149.128Z"
        fill="#FFC850"/>
    <path d="M161.913 53.5971L148.914 57L147 50L161.247 51.9819C163.254 52.2611 163.621 53.1502 161.913 53.5971Z"
          fill="#FFC850"/>
    <path d="M160.913 60.5971L147.914 64L146 57L160.247 58.9819C162.254 59.2611 162.621 60.1502 160.913 60.5971Z"
          fill="#EBAF4B"/>
    <path
        d="M27.022 85.3891C49.1983 83.3038 65.2035 55.8017 74.7842 39.233C81.1899 28.1551 89.7751 21.3116 102.485 18.8316L94.5091 8.46231C94.5091 8.46231 144.103 7.56039 151.865 59.8595C157.064 105.847 119.747 135.603 76.475 135.603C41.3673 135.603 10.9229 114.691 0.192928 85.7886C-0.71758 83.336 1.75862 81.0018 4.17529 82.004C9.25025 84.108 17.201 86.3126 27.022 85.3891Z"
        fill="#00C3FF"/>
    <path
        d="M55.5104 131.545C98.7828 131.545 136.099 101.789 130.9 55.8017C126.549 26.4872 109.058 13.8913 94.5215 8.47854L94.5091 8.46231C94.5091 8.46231 144.103 7.56039 151.865 59.8595C157.064 105.847 119.747 135.603 76.475 135.603C67.0172 135.603 57.8984 134.084 49.4116 131.301C51.4294 131.442 53.4577 131.545 55.5104 131.545Z"
        fill="#00AAF0"/>
    <path
        d="M67.6628 49.5339C72.1501 43.6843 80.1715 41.8748 86.6488 45.3952L86.7392 45.4445C123.345 65.3757 84.0141 134.07 23.7439 81.146C21.5074 79.182 22.892 75.4805 25.8683 75.4798C35.4831 75.4782 51.0196 71.2294 67.6628 49.5339Z"
        fill="#00AAF0"/>
    <path
        d="M32.0072 74.9103C50.9566 92.711 97.7714 102.973 100.657 65.277C103.771 90.8859 69.8783 121.701 23.6949 81.1024C21.4533 79.132 22.9079 75.4741 25.8922 75.4706C27.7269 75.4687 29.7765 75.312 32.0072 74.9103Z"
        fill="#0096DC"/>
    <path
        d="M83.8214 43.1094C79.7869 42.9691 75.0907 43.4706 71.9987 39.7396C69.2762 36.7568 67.0609 33.0437 65.6322 28.9967C65.3845 26.057 65.3818 22.4659 62.697 21.0692C59.5983 19.1026 55.937 19.3856 52.5488 18.8413C46.1549 18.416 40.0631 21.0818 34.1032 23.4401C31.2738 24.5506 27.7956 24.3467 25.7212 21.5127C24.1053 19.659 23.1232 17.2585 22.1031 14.9605C20.6092 13.4729 20.5195 11.1619 22.5361 10.5452C23.7777 9.7034 25.0193 8.86159 26.2609 8.01978C28.1684 12.1482 29.6198 17.453 33.6424 19.2925C37.772 20.338 41.6023 17.5312 45.4953 16.3942C51.0143 14.2944 56.9121 13.9783 62.6122 15.0917C65.8942 15.4367 69.8661 16.8599 70.8583 21.0909C71.1486 24.7598 71.8099 28.3335 74.0038 31.0887C76.0796 34.817 79.1237 38.3708 83.1199 38.5241C84.4426 39.043 88.7712 37.983 88.2947 39.2549C86.8036 40.5397 85.3125 41.8245 83.8214 43.1094V43.1094Z"
        fill="#B60202"/>
    <path
        d="M80.5091 30.0508C88.879 30.7987 103.659 33.4488 115.322 34.1715C124.894 34.7646 135.111 34.3369 143 34.1715C148.714 43.9647 152 54 152 63.5C135.178 66.317 119.31 64.4539 105.585 60.0677C93.0986 56.0773 82.4758 51.5195 73.5 41.5C77.5026 35.8054 77.103 33.1208 80.5091 30.0508Z"
        fill="#D40000"/>
    <path
        d="M79.6555 36.5426C76.73 34.6348 73.1513 32.9518 71.9071 29.44C71.0829 27.0885 70.2364 24.7109 69.8238 22.2507C69.4623 18.9073 69.8338 15.5381 69.667 12.1872C70.2062 10.0489 68.8195 8.08163 66.6778 7.68686C63.8708 6.86861 60.9016 6.97621 58.0236 6.57987C55.378 6.43569 52.2207 7.01126 50.1224 5.02146C48.5309 3.12348 47.8395 0.667057 47.0509 -1.63248C46.8701 -2.83358 48.4651 -2.88162 49.1584 -3.59183C50.4235 -4.39456 51.6887 -5.19728 52.9538 -6C53.2284 -3.76257 54.2097 -1.6742 55.0866 0.376886C56.297 2.53186 58.9482 2.63469 61.1353 2.58054C64.5648 2.79875 68.048 2.86635 71.4065 3.62824C73.5235 4.12283 76.0183 5.62157 75.7956 8.08609C75.9384 13.1922 75.0927 18.4872 76.8482 23.4109C77.5737 25.6134 78.2856 27.9909 80.2336 29.4531C81.6942 30.8073 83.5311 31.6969 85.1588 32.7776C83.8251 33.9441 82.1232 34.8229 80.6487 35.8849C80.3177 36.1041 79.9866 36.3233 79.6555 36.5426V36.5426Z"
        fill="#D40000"/>
    <path
        d="M127.872 59.8595C132.354 59.8595 135.988 56.2261 135.988 51.7442V49.0391C135.988 44.5573 132.354 40.9238 127.872 40.9238C123.39 40.9238 119.757 44.5573 119.757 49.0391V51.7442C119.757 56.2261 123.39 59.8595 127.872 59.8595Z"
        fill="#4B3F4E"/>
    <path
        d="M127.872 40.9238V50.3918C127.872 52.6328 126.056 54.4496 123.814 54.4496C121.573 54.4496 119.757 52.6331 119.757 50.3918V49.0391C119.757 44.5569 123.39 40.9238 127.872 40.9238Z"
        fill="#5D5360"/>
    <path
        d="M127.872 49.0391C126.378 49.0391 125.167 47.828 125.167 46.334C125.167 44.84 126.378 43.6289 127.872 43.6289C129.366 43.6289 130.577 44.84 130.577 46.334C130.577 47.828 129.366 49.0391 127.872 49.0391Z"
        fill="white"/>
  </g>
  <defs>
    <clipPath id="clip0">
      <rect width="163" height="163" fill="white" transform="matrix(-1 0 0 1 163 0)"/>
    </clipPath>
  </defs>
</svg>
